# xmcd
#
# Track frame offsets: 
#        150
#        14397
#        28519
#        43981
#        60410
#
# Disc length: 997 seconds
#
# Revision: 0
# Processed by: cddbd v1.5.2PL0 Copyright (c) Steve Scherf et al.
# Submitted via: ExactAudioCopyFreeDBPlugin 1.0
#
DISCID=3803e305
DTITLE=Maddie and Tae - One Heart To Another
DYEAR=2019
DGENRE=Country
TTITLE0=Friends Don't
TTITLE1=Die From A Broken Heart
TTITLE2=Tourist In This Town
TTITLE3=One Heart To Another
TTITLE4=New Dog Old Tricks
EXTD=
EXTT0=
EXTT1=
EXTT2=
EXTT3=
EXTT4=
PLAYORDER=
